# xmcd CD database file
#
# Track frame offsets:
#	183
#	21083
#	42678
#	71075
#	95128
#	121873
#	145285
#	167795
#	195300
#	219463
#	239940
#	260170
#	284275
#
# Disc length: 4097 seconds
#
# Revision: 0
# Processed by: cddbd v1.4PL0 Copyright (c) Steve Scherf et al.
# Submitted via: CDex 1.50
#
DISCID=d20fff0d
DTITLE=Grupo Niche - Historia Musical
DYEAR=1900
DGENRE=Salsa
TTITLE0=Primero y que
TTITLE1=Digo yo
TTITLE2=Consejo de madre
TTITLE3=Cali pachanguero
TTITLE4=Corazon sin corazon
TTITLE5=Mas duro me da
TTITLE6=Lamento Guajiro
TTITLE7=Buenaventura y Caney
TTITLE8=Perder para amar
TTITLE9=Interes cuanto vales
TTITLE10=Rosa
TTITLE11=Ana Mile
TTITLE12=Solo un carino
EXTD=
EXTT0=
EXTT1=
EXTT2=
EXTT3=
EXTT4=
EXTT5=
EXTT6=
EXTT7=
EXTT8=
EXTT9=
EXTT10=
EXTT11=
EXTT12=
PLAYORDER=
